<mxfile host="app.diagrams.net" agent="Mozilla/5.0 (Windows NT 10.0; Win64; x64) AppleWebKit/537.36 (KHTML, like Gecko) Chrome/129.0.0.0 Safari/537.36" version="24.7.17">
  <diagram name="Sayfa -1" id="anltzYVBl5_RcpDSOMOB">
    <mxGraphModel dx="1229" dy="629" grid="1" gridSize="10" guides="1" tooltips="1" connect="1" arrows="1" fold="1" page="1" pageScale="1" pageWidth="827" pageHeight="1169" math="0" shadow="0">
      <root>
        <mxCell id="0" />
        <mxCell id="1" parent="0" />
        <mxCell id="J4czOzXNkTVOh1w5669P-3" value="" style="edgeStyle=orthogonalEdgeStyle;rounded=0;orthogonalLoop=1;jettySize=auto;html=1;" edge="1" parent="1" source="J4czOzXNkTVOh1w5669P-1" target="J4czOzXNkTVOh1w5669P-2">
          <mxGeometry relative="1" as="geometry" />
        </mxCell>
        <mxCell id="J4czOzXNkTVOh1w5669P-1" value="Start" style="rounded=0;whiteSpace=wrap;html=1;" vertex="1" parent="1">
          <mxGeometry x="340" y="10" width="120" height="60" as="geometry" />
        </mxCell>
        <mxCell id="J4czOzXNkTVOh1w5669P-5" value="YES" style="edgeStyle=orthogonalEdgeStyle;rounded=0;orthogonalLoop=1;jettySize=auto;html=1;" edge="1" parent="1" source="J4czOzXNkTVOh1w5669P-2" target="J4czOzXNkTVOh1w5669P-4">
          <mxGeometry relative="1" as="geometry" />
        </mxCell>
        <mxCell id="J4czOzXNkTVOh1w5669P-7" value="NO" style="edgeStyle=orthogonalEdgeStyle;rounded=0;orthogonalLoop=1;jettySize=auto;html=1;" edge="1" parent="1" source="J4czOzXNkTVOh1w5669P-2" target="J4czOzXNkTVOh1w5669P-6">
          <mxGeometry relative="1" as="geometry" />
        </mxCell>
        <mxCell id="J4czOzXNkTVOh1w5669P-2" value="ask player if he/she wants to play" style="rounded=0;whiteSpace=wrap;html=1;" vertex="1" parent="1">
          <mxGeometry x="340" y="120" width="120" height="60" as="geometry" />
        </mxCell>
        <mxCell id="J4czOzXNkTVOh1w5669P-9" value="" style="edgeStyle=orthogonalEdgeStyle;rounded=0;orthogonalLoop=1;jettySize=auto;html=1;" edge="1" parent="1" source="J4czOzXNkTVOh1w5669P-4" target="J4czOzXNkTVOh1w5669P-8">
          <mxGeometry relative="1" as="geometry" />
        </mxCell>
        <mxCell id="J4czOzXNkTVOh1w5669P-4" value="distribute player cars and computer cards(computers first card must be seen by player" style="rounded=0;whiteSpace=wrap;html=1;" vertex="1" parent="1">
          <mxGeometry x="190" y="240" width="140" height="90" as="geometry" />
        </mxCell>
        <mxCell id="J4czOzXNkTVOh1w5669P-6" value="game ends" style="whiteSpace=wrap;html=1;rounded=0;" vertex="1" parent="1">
          <mxGeometry x="500" y="255" width="120" height="60" as="geometry" />
        </mxCell>
        <mxCell id="J4czOzXNkTVOh1w5669P-11" value="YES" style="edgeStyle=orthogonalEdgeStyle;rounded=0;orthogonalLoop=1;jettySize=auto;html=1;" edge="1" parent="1" source="J4czOzXNkTVOh1w5669P-8" target="J4czOzXNkTVOh1w5669P-10">
          <mxGeometry relative="1" as="geometry" />
        </mxCell>
        <mxCell id="J4czOzXNkTVOh1w5669P-13" value="" style="edgeStyle=orthogonalEdgeStyle;rounded=0;orthogonalLoop=1;jettySize=auto;html=1;" edge="1" parent="1" source="J4czOzXNkTVOh1w5669P-8" target="J4czOzXNkTVOh1w5669P-12">
          <mxGeometry relative="1" as="geometry" />
        </mxCell>
        <mxCell id="J4czOzXNkTVOh1w5669P-8" value="ask player to get another card" style="whiteSpace=wrap;html=1;rounded=0;" vertex="1" parent="1">
          <mxGeometry x="200" y="350" width="120" height="60" as="geometry" />
        </mxCell>
        <mxCell id="J4czOzXNkTVOh1w5669P-10" value="add card to player cards. Check if sum of card values less than 21" style="whiteSpace=wrap;html=1;rounded=0;" vertex="1" parent="1">
          <mxGeometry x="100" y="470" width="120" height="60" as="geometry" />
        </mxCell>
        <mxCell id="J4czOzXNkTVOh1w5669P-12" value="go to the end of the game" style="whiteSpace=wrap;html=1;rounded=0;" vertex="1" parent="1">
          <mxGeometry x="294" y="470" width="120" height="60" as="geometry" />
        </mxCell>
      </root>
    </mxGraphModel>
  </diagram>
</mxfile>
